<svg width="24" height="15" viewBox="0 0 24 15" fill="none" xmlns="http://www.w3.org/2000/svg">
<path d="M12.8382 14.9998C4.78494 14.9998 0.191397 9.3692 0 0H4.03398C4.16652 6.87677 7.14055 9.78962 9.49616 10.3903V0H13.2946V5.93081C15.6208 5.6756 18.0648 2.97296 18.8892 0H22.6877C22.377 1.54187 21.7577 3.00178 20.8686 4.28834C19.9794 5.57489 18.8394 6.66055 17.5201 7.4774C18.9929 8.22375 20.2937 9.28006 21.3367 10.5767C22.3797 11.8734 23.1413 13.3809 23.5711 14.9998H19.3898C19.004 13.5937 18.2198 12.335 17.1356 11.3814C16.0513 10.4279 14.7151 9.82198 13.2946 9.63951V14.9998H12.8382Z" fill="currentColor"/>
</svg>
