<svg width="23" height="23" viewBox="0 0 23 23" fill="none" xmlns="http://www.w3.org/2000/svg">
<path fill-rule="evenodd" clip-rule="evenodd" d="M11.7471 22.9344C9.48993 22.9344 8.44099 22.6034 6.6177 21.2796C5.4644 22.7689 1.81233 23.9327 1.65305 21.9415C1.65305 20.4468 1.32354 19.1837 0.950085 17.8048C0.505256 16.1059 0 14.214 0 11.4727C0 4.92554 5.34909 0 11.6867 0C18.0298 0 22.9999 5.16823 22.9999 11.5334C23.0212 17.8001 17.9866 22.9009 11.7471 22.9344ZM11.8405 5.65912C8.75404 5.49918 6.34859 7.6448 5.81589 11.0094C5.37653 13.7948 6.15638 17.187 6.82089 17.3635C7.13942 17.4407 7.94124 16.7899 8.44099 16.2879C9.26737 16.8613 10.2297 17.2057 11.2309 17.2863C14.4289 17.4408 17.1615 14.9955 17.3762 11.7871C17.5013 8.5719 15.039 5.84865 11.8405 5.66465V5.65912Z" fill="currentColor"/>
</svg>
